<svg width="25" height="24" viewBox="0 0 25 24" fill="none" xmlns="http://www.w3.org/2000/svg">
<g clip-path="url(#clip0_219_24)">
<path fill-rule="evenodd" clip-rule="evenodd" d="M24.0685 20.7938C23.3277 23.045 20.4253 24.1677 18.3517 23.9805C15.5197 23.7245 12.4381 22.2224 10.0989 20.568C6.66048 18.136 3.43967 14.3741 1.56287 10.3821C0.236473 7.56128 -0.0611235 4.09312 1.91168 1.52192C2.64128 0.571519 3.43007 0.0639317 4.61567 0.00473173C6.26047 -0.0752683 6.49088 0.865694 7.05568 2.33129C7.47648 3.42729 8.03807 4.54529 8.35167 5.68129C8.93887 7.80129 6.88607 7.8899 6.62687 9.6227C6.46527 10.7155 7.79008 12.181 8.38848 12.9602C9.56128 14.4866 10.9709 15.8031 12.5613 16.8047C13.4717 17.3791 14.9421 18.4142 15.9853 17.843C17.5917 16.963 17.4397 14.2543 19.6861 15.1711C20.8493 15.6447 21.9757 16.3282 23.0861 16.9266C24.8029 17.8498 24.7229 18.8066 24.0685 20.7938C24.5581 19.309 23.5789 22.2786 24.0685 20.7938Z" fill="#C2C270"/>
</g>
<defs>
<clipPath id="clip0_219_24">
<rect width="24" height="24" fill="white" transform="translate(0.5)"/>
</clipPath>
</defs>
</svg>
