<svg width="25" height="24" viewBox="0 0 24 25" fill="none" xmlns="http://www.w3.org/2000/svg">
<path fill-rule="evenodd" clip-rule="evenodd" d="M24.5 24H19.7V15.6012C19.7 13.2972 18.6836 12.0117 16.8608 12.0117C14.8772 12.0117 13.7 13.3512 13.7 15.6012V24H8.9V8.4H13.7V10.1543C13.7 10.1543 15.206 7.51172 18.5996 7.51172C21.9944 7.51172 24.5 9.58333 24.5 13.8697V24ZM3.4304 5.90508C1.8116 5.90508 0.5 4.58275 0.5 2.95195C0.5 1.32235 1.8116 0 3.4304 0C5.048 0 6.35959 1.32235 6.35959 2.95195C6.3608 4.58275 5.048 5.90508 3.4304 5.90508ZM0.5 24H6.5V8.4H0.5V24Z" fill="#C2C270"/>
</svg>
