<svg width="48" height="51" viewBox="0 0 48 51" fill="none" xmlns="http://www.w3.org/2000/svg">
<rect width="48" height="48" rx="8" fill="url(#paint0_linear_94_271)"/>
<g filter="url(#filter0_d_94_271)">
<path d="M26.0398 42.7518C25.0372 42.7518 24.2265 42.5492 23.6078 42.1438C23.0105 41.7385 22.5838 41.2052 22.3278 40.5438C22.0718 39.8825 21.9438 39.1572 21.9438 38.3678C21.9438 36.9812 22.2532 35.6158 22.8718 34.2718C23.5118 32.9492 24.2158 31.7332 24.9838 30.6238C26.1145 28.9812 27.2452 27.6158 28.3758 26.5278C29.5278 25.4185 30.7545 24.4372 32.0558 23.5838C32.0132 23.2638 31.9598 22.7625 31.8958 22.0798C31.8318 21.3972 31.7465 20.6505 31.6398 19.8398C31.5545 19.0078 31.4692 18.1972 31.3838 17.4078C31.2985 16.6185 31.2238 15.9465 31.1598 15.3918C30.9892 15.9465 30.7972 16.5332 30.5838 17.1518C30.3705 17.7705 30.1465 18.4212 29.9118 19.1038C29.3998 20.4905 28.8238 21.8345 28.1838 23.1358C27.5438 24.4372 26.8292 25.5998 26.0398 26.6238C25.2718 27.6478 24.4292 28.4692 23.5118 29.0878C22.6158 29.6852 21.6665 29.9838 20.6638 29.9838H20.4078C19.3838 29.9198 18.6905 29.4718 18.3278 28.6398C17.9652 27.8078 17.7838 26.8372 17.7838 25.7278C17.7838 24.8532 17.8478 23.9678 17.9758 23.0718C18.1252 22.1758 18.2852 21.3438 18.4558 20.5758C18.6265 19.8078 18.7545 19.2212 18.8398 18.8158C18.8825 18.6025 18.9678 18.1865 19.0958 17.5678C19.2238 16.9278 19.3625 16.1705 19.5118 15.2958C19.6825 14.4212 19.8212 13.5038 19.9278 12.5438C20.0345 11.5625 20.0878 10.6452 20.0878 9.79184C20.0878 8.72517 19.9705 7.82917 19.7358 7.10384C19.5012 6.37851 19.0638 6.01584 18.4238 6.01584C17.7412 6.01584 17.1118 6.30384 16.5358 6.87984C15.9598 7.43451 15.4372 8.17051 14.9678 9.08784C14.5198 9.98384 14.1252 10.9652 13.7838 12.0318C13.4638 13.0985 13.2185 14.1545 13.0478 15.1998C12.8772 16.2238 12.7918 17.1305 12.7918 17.9198C12.7918 18.4532 12.8345 18.9118 12.9198 19.2958C13.0052 19.6585 13.1438 19.8932 13.3358 19.9998C13.4852 20.0852 13.5598 20.1918 13.5598 20.3198C13.5598 20.5758 13.4212 20.7038 13.1438 20.7038C12.9945 20.7038 12.8558 20.6398 12.7278 20.5118C12.4505 20.1918 12.2158 19.6585 12.0238 18.9118C11.8318 18.1652 11.7358 17.3012 11.7358 16.3198C11.7358 15.7225 11.7785 15.1038 11.8638 14.4638C11.9492 13.8238 12.0772 13.1732 12.2478 12.5118C12.4825 11.6372 12.8132 10.7518 13.2398 9.85584C13.6665 8.93851 14.1998 8.09584 14.8398 7.32784C15.4798 6.53851 16.2265 5.90917 17.0798 5.43984C17.9545 4.97051 18.9358 4.73584 20.0238 4.73584C20.7918 4.73584 21.3892 4.93851 21.8158 5.34384C22.2425 5.72784 22.5412 6.25051 22.7118 6.91184C22.9038 7.57317 22.9998 8.30917 22.9998 9.11984C22.9998 10.0798 22.9038 11.0825 22.7118 12.1278C22.5412 13.1518 22.3385 14.1012 22.1038 14.9758C21.8905 15.8292 21.7198 16.5012 21.5918 16.9918C21.5278 17.2478 21.3998 17.6852 21.2078 18.3038C21.0372 18.9225 20.8452 19.6478 20.6318 20.4798C20.4398 21.2905 20.2692 22.1225 20.1198 22.9758C19.9918 23.8292 19.9278 24.6292 19.9278 25.3758C19.9278 26.1652 20.0452 26.8372 20.2798 27.3918C20.5145 27.9252 20.9305 28.2132 21.5278 28.2558H21.6878C22.4558 28.2558 23.2238 27.9465 23.9918 27.3278C24.7598 26.7092 25.4852 25.8772 26.1678 24.8318C26.8718 23.7652 27.5118 22.5705 28.0878 21.2478C28.6638 19.9038 29.1438 18.5278 29.5278 17.1198C29.8692 15.8825 30.1038 14.7092 30.2318 13.5998C30.3598 12.4905 30.4665 11.5092 30.5518 10.6558C30.6372 9.78117 30.7652 9.09851 30.9358 8.60784C31.1278 8.11717 31.4372 7.86117 31.8638 7.83984C31.9492 7.83984 32.0238 7.89317 32.0878 7.99984C32.1732 8.10651 32.2158 8.15984 32.2158 8.15984H32.2478C32.3118 8.15984 32.3758 8.38384 32.4398 8.83184C32.5038 9.25851 32.5572 9.75984 32.5998 10.3358C32.6425 10.9118 32.6745 11.4345 32.6958 11.9038C32.7385 12.3518 32.7705 12.5972 32.7918 12.6398C32.8558 12.7892 32.9305 13.1412 33.0158 13.6958C33.1225 14.2292 33.2505 14.9652 33.3998 15.9038C33.5705 17.0132 33.7305 18.1118 33.8798 19.1998C34.0292 20.2665 34.1678 21.3118 34.2958 22.3358L34.4238 22.2718C34.7225 22.1012 34.9998 21.9945 35.2558 21.9518C35.5118 21.9092 35.7252 21.8878 35.8958 21.8878C36.0665 21.8878 36.2158 21.9092 36.3438 21.9518C36.4932 21.9945 36.5785 22.1012 36.5998 22.2718C36.5998 22.3572 36.5465 22.4212 36.4398 22.4638C36.3545 22.5065 36.2585 22.5278 36.1518 22.5278C35.8532 22.5492 35.5332 22.6238 35.1918 22.7518C34.8718 22.8798 34.6158 23.0078 34.4238 23.1358C34.5518 24.4372 34.6158 25.9305 34.6158 27.6158C34.6158 28.7465 34.5305 29.9838 34.3598 31.3278C34.2105 32.6932 33.9438 34.0478 33.5598 35.3918C33.1972 36.7358 32.6852 37.9625 32.0238 39.0718C31.3838 40.1812 30.5732 41.0665 29.5918 41.7278C28.6105 42.4105 27.4265 42.7518 26.0398 42.7518ZM26.1678 41.8878C27.2345 41.8878 28.1305 41.6212 28.8558 41.0878C29.6025 40.5758 30.2105 39.8718 30.6798 38.9758C31.1492 38.0798 31.5118 37.0772 31.7678 35.9678C32.0452 34.8585 32.2372 33.7065 32.3438 32.5118C32.4505 31.3385 32.5038 30.1972 32.5038 29.0878C32.5038 28.1065 32.4718 27.1998 32.4078 26.3678C32.3652 25.5145 32.3118 24.8105 32.2478 24.2558C31.3305 24.8318 30.3598 25.6425 29.3358 26.6878C28.3332 27.7332 27.3838 28.8958 26.4878 30.1758C25.6132 31.4558 24.8985 32.7678 24.3438 34.1118C23.8105 35.4772 23.5438 36.7572 23.5438 37.9518C23.5438 38.5918 23.6292 39.2105 23.7998 39.8078C23.9705 40.4052 24.2478 40.8958 24.6318 41.2798C25.0158 41.6852 25.5278 41.8878 26.1678 41.8878Z" fill="url(#paint1_linear_94_271)"/>
</g>
<defs>
<filter id="filter0_d_94_271" x="7.73584" y="4.73584" width="32.8638" height="46.0161" filterUnits="userSpaceOnUse" color-interpolation-filters="sRGB">
<feFlood flood-opacity="0" result="BackgroundImageFix"/>
<feColorMatrix in="SourceAlpha" type="matrix" values="0 0 0 0 0 0 0 0 0 0 0 0 0 0 0 0 0 0 127 0" result="hardAlpha"/>
<feOffset dy="4"/>
<feGaussianBlur stdDeviation="2"/>
<feComposite in2="hardAlpha" operator="out"/>
<feColorMatrix type="matrix" values="0 0 0 0 0 0 0 0 0 0 0 0 0 0 0 0 0 0 0.25 0"/>
<feBlend mode="normal" in2="BackgroundImageFix" result="effect1_dropShadow_94_271"/>
<feBlend mode="normal" in="SourceGraphic" in2="effect1_dropShadow_94_271" result="shape"/>
</filter>
<linearGradient id="paint0_linear_94_271" x1="24" y1="0" x2="24" y2="48" gradientUnits="userSpaceOnUse">
<stop stop-color="#2563EB"/>
<stop offset="1" stop-color="#1F51BF"/>
</linearGradient>
<linearGradient id="paint1_linear_94_271" x1="24.1678" y1="4.73584" x2="24.1678" y2="42.7518" gradientUnits="userSpaceOnUse">
<stop stop-color="white"/>
<stop offset="1" stop-color="#EFEFEF"/>
</linearGradient>
</defs>
</svg>
